<mxfile host="app.diagrams.net" modified="2020-04-12T09:32:18.776Z" agent="5.0 (X11; Linux x86_64) AppleWebKit/537.36 (KHTML, like Gecko) Ubuntu Chromium/80.0.3987.163 Chrome/80.0.3987.163 Safari/537.36" etag="Yd_hen7-dZXQOqAdjswx" version="12.9.7" type="github">
  <diagram id="A31cZxy-Y_UmEJIQYcu8" name="Page-1">
    <mxGraphModel dx="1061" dy="724" grid="1" gridSize="10" guides="1" tooltips="1" connect="1" arrows="1" fold="1" page="1" pageScale="1" pageWidth="1920" pageHeight="1200" math="0" shadow="0">
      <root>
        <mxCell id="0" />
        <mxCell id="1" parent="0" />
        <mxCell id="SuRkb7Io-Rj8UrUsdFib-1" value="&lt;p style=&quot;margin: 0px ; margin-top: 4px ; text-align: center&quot;&gt;&lt;i&gt;&amp;lt;&amp;lt;Interface&amp;gt;&amp;gt;&lt;/i&gt;&lt;br&gt;&lt;b&gt;A&lt;/b&gt;&lt;/p&gt;&lt;hr size=&quot;1&quot;&gt;&lt;p style=&quot;margin: 0px ; margin-left: 4px&quot;&gt;&lt;br&gt;&lt;/p&gt;&lt;hr size=&quot;1&quot;&gt;&lt;p style=&quot;margin: 0px ; margin-left: 4px&quot;&gt;+ methodA(): void&lt;br&gt;&lt;/p&gt;" style="verticalAlign=top;align=left;overflow=fill;fontSize=12;fontFamily=Helvetica;html=1;comic=1;" vertex="1" parent="1">
          <mxGeometry x="315" y="150" width="110" height="90" as="geometry" />
        </mxCell>
        <mxCell id="SuRkb7Io-Rj8UrUsdFib-11" value="&lt;p style=&quot;margin: 0px ; margin-top: 4px ; text-align: center&quot;&gt;&lt;i&gt;&amp;lt;&amp;lt;Interface&amp;gt;&amp;gt;&lt;/i&gt;&lt;br&gt;&lt;b&gt;B&lt;/b&gt;&lt;/p&gt;&lt;hr size=&quot;1&quot;&gt;&lt;p style=&quot;margin: 0px ; margin-left: 4px&quot;&gt;&lt;br&gt;&lt;/p&gt;&lt;hr size=&quot;1&quot;&gt;&lt;p style=&quot;margin: 0px ; margin-left: 4px&quot;&gt;+ methodB(): void&lt;br&gt;&lt;/p&gt;" style="verticalAlign=top;align=left;overflow=fill;fontSize=12;fontFamily=Helvetica;html=1;comic=1;" vertex="1" parent="1">
          <mxGeometry x="525" y="150" width="110" height="90" as="geometry" />
        </mxCell>
        <mxCell id="SuRkb7Io-Rj8UrUsdFib-12" value="" style="endArrow=block;dashed=1;endFill=0;endSize=12;html=1;entryX=0.5;entryY=1;entryDx=0;entryDy=0;exitX=0.5;exitY=0;exitDx=0;exitDy=0;" edge="1" parent="1" source="SuRkb7Io-Rj8UrUsdFib-3" target="SuRkb7Io-Rj8UrUsdFib-1">
          <mxGeometry width="160" relative="1" as="geometry">
            <mxPoint x="370" y="320" as="sourcePoint" />
            <mxPoint x="530" y="320" as="targetPoint" />
          </mxGeometry>
        </mxCell>
        <mxCell id="SuRkb7Io-Rj8UrUsdFib-14" value="" style="edgeStyle=orthogonalEdgeStyle;rounded=0;orthogonalLoop=1;jettySize=auto;html=1;endArrow=block;endFill=0;dashed=1;endSize=12;" edge="1" parent="1" source="SuRkb7Io-Rj8UrUsdFib-7" target="SuRkb7Io-Rj8UrUsdFib-11">
          <mxGeometry relative="1" as="geometry" />
        </mxCell>
        <mxCell id="SuRkb7Io-Rj8UrUsdFib-13" value="" style="endArrow=open;endFill=1;endSize=12;html=1;entryX=0.25;entryY=1;entryDx=0;entryDy=0;exitX=0.75;exitY=0;exitDx=0;exitDy=0;" edge="1" parent="1" source="SuRkb7Io-Rj8UrUsdFib-3" target="SuRkb7Io-Rj8UrUsdFib-11">
          <mxGeometry width="160" relative="1" as="geometry">
            <mxPoint x="425" y="320" as="sourcePoint" />
            <mxPoint x="585" y="320" as="targetPoint" />
            <Array as="points">
              <mxPoint x="410" y="290" />
              <mxPoint x="553" y="290" />
            </Array>
          </mxGeometry>
        </mxCell>
        <mxCell id="SuRkb7Io-Rj8UrUsdFib-3" value="AdapterA" style="swimlane;fontStyle=1;align=center;verticalAlign=top;childLayout=stackLayout;horizontal=1;startSize=26;horizontalStack=0;resizeParent=1;resizeParentMax=0;resizeLast=0;collapsible=1;marginBottom=0;comic=1;" vertex="1" parent="1">
          <mxGeometry x="290" y="320" width="160" height="86" as="geometry" />
        </mxCell>
        <mxCell id="SuRkb7Io-Rj8UrUsdFib-4" value="b: B" style="text;strokeColor=none;fillColor=none;align=left;verticalAlign=top;spacingLeft=4;spacingRight=4;overflow=hidden;rotatable=0;points=[[0,0.5],[1,0.5]];portConstraint=eastwest;" vertex="1" parent="SuRkb7Io-Rj8UrUsdFib-3">
          <mxGeometry y="26" width="160" height="26" as="geometry" />
        </mxCell>
        <mxCell id="SuRkb7Io-Rj8UrUsdFib-5" value="" style="line;strokeWidth=1;fillColor=none;align=left;verticalAlign=middle;spacingTop=-1;spacingLeft=3;spacingRight=3;rotatable=0;labelPosition=right;points=[];portConstraint=eastwest;" vertex="1" parent="SuRkb7Io-Rj8UrUsdFib-3">
          <mxGeometry y="52" width="160" height="8" as="geometry" />
        </mxCell>
        <mxCell id="SuRkb7Io-Rj8UrUsdFib-6" value="+ methodA(): void" style="text;strokeColor=none;fillColor=none;align=left;verticalAlign=top;spacingLeft=4;spacingRight=4;overflow=hidden;rotatable=0;points=[[0,0.5],[1,0.5]];portConstraint=eastwest;" vertex="1" parent="SuRkb7Io-Rj8UrUsdFib-3">
          <mxGeometry y="60" width="160" height="26" as="geometry" />
        </mxCell>
        <mxCell id="SuRkb7Io-Rj8UrUsdFib-7" value="Think" style="swimlane;fontStyle=1;align=center;verticalAlign=top;childLayout=stackLayout;horizontal=1;startSize=26;horizontalStack=0;resizeParent=1;resizeParentMax=0;resizeLast=0;collapsible=1;marginBottom=0;comic=1;" vertex="1" parent="1">
          <mxGeometry x="500" y="320" width="160" height="86" as="geometry" />
        </mxCell>
        <mxCell id="SuRkb7Io-Rj8UrUsdFib-8" value="Â " style="text;strokeColor=none;fillColor=none;align=left;verticalAlign=top;spacingLeft=4;spacingRight=4;overflow=hidden;rotatable=0;points=[[0,0.5],[1,0.5]];portConstraint=eastwest;" vertex="1" parent="SuRkb7Io-Rj8UrUsdFib-7">
          <mxGeometry y="26" width="160" height="26" as="geometry" />
        </mxCell>
        <mxCell id="SuRkb7Io-Rj8UrUsdFib-9" value="" style="line;strokeWidth=1;fillColor=none;align=left;verticalAlign=middle;spacingTop=-1;spacingLeft=3;spacingRight=3;rotatable=0;labelPosition=right;points=[];portConstraint=eastwest;" vertex="1" parent="SuRkb7Io-Rj8UrUsdFib-7">
          <mxGeometry y="52" width="160" height="8" as="geometry" />
        </mxCell>
        <mxCell id="SuRkb7Io-Rj8UrUsdFib-10" value="+ methodB(): void" style="text;strokeColor=none;fillColor=none;align=left;verticalAlign=top;spacingLeft=4;spacingRight=4;overflow=hidden;rotatable=0;points=[[0,0.5],[1,0.5]];portConstraint=eastwest;" vertex="1" parent="SuRkb7Io-Rj8UrUsdFib-7">
          <mxGeometry y="60" width="160" height="26" as="geometry" />
        </mxCell>
        <mxCell id="SuRkb7Io-Rj8UrUsdFib-15" value="void methodA{&lt;br&gt;&amp;nbsp; &amp;nbsp; b.methodB();&lt;br&gt;}" style="shape=note;whiteSpace=wrap;html=1;size=14;verticalAlign=top;align=left;spacingTop=-6;comic=1;" vertex="1" parent="1">
          <mxGeometry x="140" y="320" width="100" height="42" as="geometry" />
        </mxCell>
        <mxCell id="SuRkb7Io-Rj8UrUsdFib-16" style="edgeStyle=orthogonalEdgeStyle;rounded=0;orthogonalLoop=1;jettySize=auto;html=1;entryX=0.5;entryY=1;entryDx=0;entryDy=0;entryPerimeter=0;dashed=1;endArrow=none;endFill=0;endSize=12;" edge="1" parent="1" source="SuRkb7Io-Rj8UrUsdFib-6" target="SuRkb7Io-Rj8UrUsdFib-15">
          <mxGeometry relative="1" as="geometry">
            <Array as="points">
              <mxPoint x="190" y="393" />
            </Array>
          </mxGeometry>
        </mxCell>
      </root>
    </mxGraphModel>
  </diagram>
</mxfile>
